<mxfile host="app.diagrams.net" modified="2020-11-21T06:56:08.163Z" agent="5.0 (Windows NT 10.0; WOW64) AppleWebKit/537.36 (KHTML, like Gecko) coc_coc_browser/90.0.148 Chrome/84.0.4147.148 Safari/537.36" etag="DH4GS8-sFP-IC3zuxCsM" version="13.10.0" type="github">
  <diagram id="6DmPDDC-hSAssfeK4FAG" name="Page-1">
    <mxGraphModel dx="824" dy="476" grid="1" gridSize="10" guides="1" tooltips="1" connect="1" arrows="1" fold="1" page="1" pageScale="1" pageWidth="850" pageHeight="1100" math="0" shadow="0">
      <root>
        <mxCell id="0" />
        <mxCell id="1" parent="0" />
        <mxCell id="DRykwZ0vHsyiwN3d384E-1" value="" style="rounded=1;whiteSpace=wrap;html=1;" vertex="1" parent="1">
          <mxGeometry x="390" y="150" width="120" height="60" as="geometry" />
        </mxCell>
      </root>
    </mxGraphModel>
  </diagram>
</mxfile>
